<?xml version="1.0" encoding="iso-8859-1"?>
<!-- Generator: Adobe Illustrator 19.0.0, SVG Export Plug-In . SVG Version: 6.00 Build 0)  -->
<svg version="1.1" id="Layer_1" xmlns="http://www.w3.org/2000/svg" xmlns:xlink="http://www.w3.org/1999/xlink" x="0px" y="0px"
	 viewBox="0 0 460.233 460.233" style="enable-background:new 0 0 460.233 460.233;" xml:space="preserve">
<polygon style="fill:#D8D9DD;" points="309.125,441.463 151.34,441.463 171.063,352.014 289.402,352.014 "/>
<rect x="131.636" y="431.298" style="fill:#D8D9DD;" width="197.193" height="18.296"/>
<path style="fill:#59595A;" d="M439.677,75.537c0.012,0,0.226,0.139,0.226,0.151v255.997H20.562V75.688
	c0-0.012,0.149-0.151,0.161-0.151H439.677L439.677,75.537z M460.233,203.61V75.652c0-10.847-9.672-20.444-20.52-20.444l0,0H20.687
	c-10.847,0-20.454,9.597-20.454,20.444V203.61v0.003v127.959c0,10.848,9.607,20.444,20.454,20.444h419.026l0,0
	c10.848,0,20.52-9.597,20.52-20.444V203.613V203.61z"/>
<path style="fill:#90C5FF;" d="M439.677,75.537c0.012,0,0.226,0.139,0.226,0.151v255.997H20.562V75.688
	c0-0.012,0.149-0.151,0.161-0.151H439.677L439.677,75.537z"/>
<rect x="131.636" y="431.298" style="opacity:0.4;fill:#5B5B5F;enable-background:new    ;" width="197.193" height="18.296"/>
<g>
	<g>
		<polygon style="opacity:0.2;fill:#FFFFFF;enable-background:new    ;" points="180.309,362.12 152.963,374.159 0,27.043 
			27.335,14.99 		"/>
	</g>
	<g>
		<polygon style="opacity:0.2;fill:#FFFFFF;enable-background:new    ;" points="232.33,357.771 204.974,369.809 52.01,22.692 
			79.325,10.639 		"/>
	</g>
</g>
</svg>
